HIERARCHY
ROOT Pelvis
{
	OFFSET 0.000000 0.000000 0.000000
	CHANNELS 6 Xposition Yposition Zposition Zrotation Yrotation Xrotation 
	JOINT Left_hip
	{
		OFFSET 0.068973 -0.091024 -0.007589
		CHANNELS 3 Zrotation Yrotation Xrotation
		JOINT Left_knee
		{
			OFFSET 0.036482 -0.391037 -0.003979
			CHANNELS 3 Zrotation Yrotation Xrotation
			JOINT Left_ankle
			{
				OFFSET -0.012239 -0.415469 -0.043440
				CHANNELS 3 Zrotation Yrotation Xrotation
				JOINT Left_foot
				{
					OFFSET 0.023806 -0.058558 0.118702
					CHANNELS 3 Zrotation Yrotation Xrotation
					End Site
					{
						OFFSET 0.000000 0.000000 0.000000
					}
				}
			}
		}
	}
	JOINT Right_hip
	{
		OFFSET -0.066552 -0.090468 -0.003847
		CHANNELS 3 Zrotation Yrotation Xrotation
		JOINT Right_knee
		{
			OFFSET -0.042435 -0.398340 -0.006400
			CHANNELS 3 Zrotation Yrotation Xrotation
			JOINT Right_ankle
			{
				OFFSET 0.014931 -0.415421 -0.041327
				CHANNELS 3 Zrotation Yrotation Xrotation
				JOINT Right_foot
				{
					OFFSET -0.021472 -0.049410 0.121889
					CHANNELS 3 Zrotation Yrotation Xrotation
					End Site
					{
						OFFSET 0.000000 0.000000 0.000000
					}
				}
			}
		}
	}
	JOINT Spine1
	{
		OFFSET -0.002904 0.105700 -0.022855
		CHANNELS 3 Zrotation Yrotation Xrotation
		JOINT Spine2
		{
			OFFSET 0.004179 0.132554 -0.002501
			CHANNELS 3 Zrotation Yrotation Xrotation
			JOINT Spine3
			{
				OFFSET 0.001987 0.049603 0.025988
				CHANNELS 3 Zrotation Yrotation Xrotation
				JOINT Neck
				{
					OFFSET -0.003935 0.211336 -0.045638
					CHANNELS 3 Zrotation Yrotation Xrotation
					JOINT Head
					{
						OFFSET 0.003906 0.065991 0.051018
						CHANNELS 3 Zrotation Yrotation Xrotation
						End Site
						{
							OFFSET 0.000000 0.000000 0.000000
						}
					}
				}
				JOINT Left_collar
				{
					OFFSET 0.072882 0.117751 -0.036270
					CHANNELS 3 Zrotation Yrotation Xrotation
					JOINT Left_shoulder
					{
						OFFSET 0.082118 0.032630 -0.005771
						CHANNELS 3 Zrotation Yrotation Xrotation
						JOINT Left_elbow
						{
							OFFSET 0.263305 -0.015144 -0.028095
							CHANNELS 3 Zrotation Yrotation Xrotation
							JOINT Left_wrist
							{
								OFFSET 0.250741 0.010115 -0.000759
								CHANNELS 3 Zrotation Yrotation Xrotation
								JOINT Left_palm
								{
									OFFSET 0.080683 -0.009989 -0.013613
									CHANNELS 3 Zrotation Yrotation Xrotation
									End Site
									{
										OFFSET 0.000000 0.000000 0.000000
									}
								}
							}
						}
					}
				}
				JOINT Right_collar
				{
					OFFSET -0.074811 0.116132 -0.040385
					CHANNELS 3 Zrotation Yrotation Xrotation
					JOINT Right_shoulder
					{
						OFFSET -0.085089 0.032943 -0.007484
						CHANNELS 3 Zrotation Yrotation Xrotation
						JOINT Right_elbow
						{
							OFFSET -0.254763 -0.014219 -0.020321
							CHANNELS 3 Zrotation Yrotation Xrotation
							JOINT Right_wrist
							{
								OFFSET -0.256597 0.009233 -0.005063
								CHANNELS 3 Zrotation Yrotation Xrotation
								JOINT Right_palm
								{
									OFFSET -0.080528 -0.007219 -0.010379
									CHANNELS 3 Zrotation Yrotation Xrotation
									End Site
									{
										OFFSET 0.000000 0.000000 0.000000
									}
								}
							}
						}
					}
				}
			}
		}
	}
}
MOTION
Frames: 9
Frame Time: 0.100000
0.085360 0.007836 0.028767 178.717917 28.806270 -23.449809 15.973730 8.110299 11.964250 -1.300075 -5.853810 16.077284 -5.365868 9.067068 13.279486 3.148830 12.839165 -16.288922 -1.301643 -5.241660 6.766805 0.563428 -4.992407 16.537587 1.596096 -10.331741 -12.189841 -9.543739 -9.702532 8.961304 0.758311 -1.973132 1.396208 0.591625 -7.052886 14.011980 -0.667217 -1.176276 3.858982 -1.078577 -2.149557 27.012926 2.483241 3.496141 -5.016068 -17.419893 -7.301865 6.365267 -49.125825 7.599009 4.600772 15.441006 -49.430661 18.998611 -5.641423 -6.521123 14.160657 -18.907084 -7.707455 -9.449980 8.242312 8.904886 -3.023306 34.242277 9.298615 -7.333239 -142.104323 68.810205 -115.466539 0.225686 14.226037 13.359214 25.442895 1.210423 -5.867173 
0.093843 -0.000704 0.026328 178.817417 28.920299 -22.131483 14.629132 8.765840 8.216059 -0.443526 -0.294184 18.688134 -3.298542 10.161440 13.531848 2.484806 13.495528 -15.428162 -0.609321 -5.212410 9.209408 0.668742 -5.387476 8.520148 1.584923 -9.037117 -8.247406 -8.867727 -10.823983 9.248313 0.585907 -0.435533 1.452305 1.828862 -7.270443 15.201542 -0.339635 -0.449114 2.692118 0.267114 -0.758929 26.188729 1.802900 3.524180 -3.946724 -19.169859 -8.154329 8.188212 -52.439790 6.988163 5.684626 13.536327 -41.051232 21.233373 -3.134200 -7.958048 10.947717 -16.730247 -5.878384 -7.995595 11.947959 11.015699 -2.436187 37.841968 14.903285 -7.980872 -129.090858 63.813285 -101.917810 -10.853266 15.449421 17.331274 25.547033 -0.243834 -6.334767 
0.097659 -0.005730 0.024943 178.997851 29.200667 -20.273065 12.878640 8.502230 4.646566 -2.082497 0.871219 18.658199 -3.523782 7.841706 10.956877 2.282741 13.887911 -13.949520 -0.924440 -5.558026 10.993219 1.697088 -5.911315 1.167373 2.894713 -7.365504 -4.863474 -9.236273 -11.439486 8.995257 0.815811 0.813445 1.306042 2.145013 -6.989328 14.526041 -0.242614 0.166708 2.253896 0.756736 -1.770675 25.500089 1.879694 2.048001 -4.376272 -19.812167 -7.632253 8.109813 -54.636755 8.791228 7.373245 11.050017 -37.226519 23.776271 -5.998923 -9.683940 11.162735 -14.810336 -4.897475 -8.505025 12.746438 12.723311 -2.191644 39.207184 16.543469 -5.839089 -135.804688 64.982257 -108.758036 -10.801577 17.878326 18.599430 23.505465 -1.338550 -6.531077 
0.097025 -0.006142 0.026040 178.640605 29.897996 -19.538176 11.660983 8.437451 3.373466 -3.328423 0.672375 13.869479 -4.436847 6.986807 9.615424 3.853307 13.277503 -11.994591 -1.143236 -5.792967 12.602992 2.857557 -6.093764 -3.442778 3.378962 -6.906377 -3.434118 -8.516657 -11.125057 9.090386 1.328517 1.431181 1.234970 2.029621 -6.636099 14.022627 -0.266489 0.592025 2.435921 1.192165 -2.488015 24.566052 1.659611 1.836358 -4.720605 -20.275146 -6.550366 7.639125 -55.281510 11.017542 8.641345 9.034866 -37.308757 24.556552 -7.566523 -10.598998 10.686164 -14.011670 -4.590925 -8.854558 12.866453 13.861253 -1.709069 38.113187 16.656923 -3.004108 -148.435644 68.913083 -122.467839 -8.043176 18.897884 18.358181 21.352846 -1.771660 -6.240319 
0.092380 -0.006157 0.025037 178.032192 31.756104 -19.264545 9.750352 8.186229 1.338361 -2.809300 2.256330 10.065430 -3.554065 8.111198 8.898766 4.603577 12.841990 -9.759584 -1.069653 -5.996413 12.955386 2.919854 -6.909775 -4.895447 3.303185 -7.615194 -2.891769 -7.568174 -10.600576 9.366046 1.680250 1.979588 1.713563 1.916963 -6.333934 13.408615 -0.297536 0.780738 2.472147 1.390661 -3.322540 23.707193 1.649901 1.047140 -5.054820 -20.281309 -5.580473 6.580978 -56.075650 11.084295 9.243754 9.090602 -36.761536 22.752617 -7.159669 -10.136958 10.699462 -13.598341 -4.613305 -8.956419 12.864680 13.512475 -1.675283 38.970066 15.262539 -0.332360 -158.194551 70.849788 -133.180850 -7.077983 18.889884 16.823805 20.376545 -1.377361 -6.272321 
0.082601 -0.006299 0.024264 177.502815 33.378481 -19.124225 7.897918 7.835903 -0.866162 -3.247268 3.182740 8.352503 -3.163834 7.818821 8.408180 4.599552 12.769323 -8.554287 -1.321795 -6.331938 13.128840 2.793858 -7.772626 -5.323911 3.326355 -8.121144 -2.626051 -7.026694 -10.069387 9.659313 1.901684 2.580545 2.016580 1.886577 -6.157016 13.154494 -0.211808 1.001985 2.357392 1.096759 -3.815713 23.170146 1.586417 0.273988 -5.713790 -20.102320 -5.617993 6.153180 -56.328345 11.085620 9.963284 9.337878 -38.634762 22.347100 -6.108655 -10.487687 10.315903 -13.696481 -4.891284 -9.553232 12.895310 13.694284 -1.542277 39.652133 13.996628 0.907759 -161.459773 70.460713 -137.283246 -7.695328 19.199044 14.411390 20.219725 -0.879937 -6.721546 
0.067000 -0.006068 0.025471 176.646922 33.357492 -18.972648 6.712900 7.479542 -2.191487 -3.712238 3.231520 7.456317 -2.991619 7.121837 7.921761 4.352487 12.896581 -8.220984 -1.331638 -6.415896 13.150823 2.744898 -8.008510 -5.481012 3.621468 -8.111121 -2.459716 -6.942890 -9.800201 9.830211 2.137603 2.940258 1.657254 2.015151 -5.929372 12.521253 -0.158339 1.324146 2.238740 1.133019 -3.786173 22.971168 1.586791 0.290257 -6.080279 -19.604762 -5.182252 5.655512 -56.616750 11.110079 10.561547 9.579531 -40.671753 22.724306 -5.629005 -10.986891 9.528067 -13.894929 -5.033577 -9.897977 12.618235 13.634061 -1.790580 40.063412 14.738063 1.091782 -157.331652 70.086734 -133.486370 -8.889458 19.265745 12.984504 20.231543 -0.657657 -6.992046 
0.045250 -0.005893 0.028906 175.951137 31.340833 -19.444912 5.778481 6.966930 -0.197975 -3.244778 2.052706 5.071158 -2.360218 7.525188 8.108101 4.885355 12.718462 -7.911448 -1.330724 -5.934077 13.106353 2.140884 -7.317626 -3.646862 4.384206 -8.052971 -2.968708 -7.912478 -9.480410 8.987373 2.049750 2.768830 1.183039 1.930678 -5.784650 12.439690 -0.217225 1.538082 2.204449 0.874423 -3.153216 22.575171 2.123811 1.557281 -6.761370 -18.905840 -5.031704 5.199752 -56.890827 11.031737 11.053315 9.404734 -40.594080 22.781067 -5.162129 -10.935551 7.757783 -14.210458 -4.880671 -9.985657 11.964366 14.034857 -2.398341 41.460282 16.848310 1.927061 -151.153613 69.282825 -129.937785 -9.646475 19.108438 7.423825 20.257197 -1.234493 -6.349823 
0.020532 -0.005960 0.030761 175.834060 28.255757 -20.543483 5.114274 7.389924 3.361158 -2.606070 3.041151 3.190544 -0.733552 9.961463 7.278875 5.920081 12.264009 -6.489753 -1.456163 -4.639519 10.944392 0.315057 -6.475757 3.756672 5.396282 -8.425060 -4.596868 -9.872096 -9.115588 6.842378 1.395984 1.790524 1.658838 1.379212 -5.976836 12.505491 -0.515942 1.369748 2.492225 0.259321 -2.594293 22.257239 3.325100 3.640849 -7.918909 -17.522803 -5.908323 4.529968 -56.925593 10.955428 12.044442 8.437241 -38.652032 22.102352 -5.996864 -9.153079 3.116744 -14.742946 -4.513931 -10.487775 10.010095 15.815415 -3.865233 45.297912 20.401998 5.997247 -152.834211 66.953548 -138.018397 -8.982626 17.728247 -8.128675 20.179120 -2.943122 -4.686063 
